# xmcd
#
# Track frame offsets:
# 150
# 4300
# 20355
# 23672
# 38060
# 39387
# 46581
# 48775
# 66582
# 84899
# 110410
# 127962
# 147452
# 148626
# 165514
# 180770
# 200924
# 202047
# 217405
# 233222
# 249192
# 262152
# 264857
# 283276
# 284705
# 302205
# 319808
# 321237
# 336646
# 347922
#
# Disc length: 4669 seconds
#
#
# Revision: 0
# Processed by: cddbd v1.5.1PL2 Copyright (c) Steve Scherf et al.
# Submitted via: FreeRIP 2.942 
#
DISCID=cd123b1e
DTITLE=Big Boi - Got That Purp
DYEAR=2005
DGENRE=Hip-Hop
TTITLE0=Intro
TTITLE1=Oh No
TTITLE2=Speaks
TTITLE3=Ain't No Love Freestyle (Banger!!)
TTITLE4=Speaks
TTITLE5=Freestyle
TTITLE6=Speaks Out
TTITLE7=Beef (Hot!!)
TTITLE8=808
TTITLE9=Get Em Shawty
TTITLE10=So Fresh So Clean Pt. 2
TTITLE11=White Gutz
TTITLE12=Interlude
TTITLE13=112 Freestyle (Banger!!)
TTITLE14=D-Boy Stance
TTITLE15=I Can't Wait (Classic!!)
TTITLE16=Speaks Again
TTITLE17=Wonderful (Heat!!)
TTITLE18=For The No No
TTITLE19=Whatcha Wanna Do
TTITLE20=Sunday Morning
TTITLE21=Speaks Again
TTITLE22=Niggaz Down South
TTITLE23=Interlude
TTITLE24=Margarita
TTITLE25=U Got Me!
TTITLE26=Outro
TTITLE27=Chose Me
TTITLE28=Pocket Full of Midz (Hot!!)
TTITLE29=Outro
EXTD=
EXTT0=
EXTT1=F. Bubba Sparxxx, Backbone
EXTT2=F. Killer Mike
EXTT3=F. Killer Mike
EXTT4=F. Bubba Sparxxx
EXTT5=F. Bubba Sparxxx
EXTT6=F. Konkrete
EXTT7=F. Konkrete
EXTT8=F. Bun B, Big Gee, Gee Rock
EXTT9=F. Killer Mike, Bubba Sparxxx, 3-6 Mafia
EXTT10=F. Outkast, Snoop Dogg, Sleepy Brown
EXTT11=F. Dungeon Family
EXTT12=
EXTT13=F. Killer Mike
EXTT14=F. Konkrete
EXTT15=F. Sleepy Brown, Outkast
EXTT16=F. Bubba Sparxxx
EXTT17=F. Bubba Sparxxx
EXTT18=F. Killer Mike, Whyte Chocolate
EXTT19=F. Konkrete
EXTT20=F. Sleepy Brown
EXTT21=
EXTT22=F. Killer Mike
EXTT23=
EXTT24=F. Sleepy Brown, Pharell Williams
EXTT25=F. Scar
EXTT26=F. Killer Mike
EXTT27=F. Killer Mike, Scar
EXTT28=F. Bubba Sparxxx
EXTT29=
PLAYORDER=
